
		<svg xmlns="http://www.w3.org/2000/svg" xmlns:xlink="http://www.w3.org/1999/xlink" version="1.1" width="2358.017878745919" height="3447.7611940298507">
			
			<g transform="scale(22.388059701492537) translate(10, 10)">
				<defs id="SvgjsDefs1519"></defs><g id="SvgjsG1520" featureKey="root" fill="#ffffff" transform="matrix(1,0,0,1,0,0)"></g><g id="SvgjsG1521" featureKey="symbol1" fill="#fc3317" transform="matrix(0.5691156764115193,0,0,0.5691156764115193,17.06769790511894,42)"><path d="M37,0.3c0.4-0.1,0.8-0.1,1.2-0.2C38.6,0,39,0,39.4,0c0.4,0,0.9,0,1.3,0c0.4,0,0.9,0.1,1.4,0.2c1.4,0.2,2.7,0.6,3.9,1.1c1.2,0.5,2.3,1.1,3.3,1.8c1,0.7,1.8,1.5,2.4,2.3c0.6,0.8,1,1.7,1.1,2.6c0.1,0.6,0,1.2-0.2,1.7c-0.2,0.5-0.5,1-0.9,1.4c-0.4,0.4-0.9,0.8-1.5,1.1c-0.6,0.3-1.3,0.6-2,0.8c-0.4,0.1-0.8,0.2-1.2,0.2c-0.4,0.1-0.8,0.1-1.3,0.1c-0.4,0-0.9,0-1.4,0c-0.5,0-1-0.1-1.4-0.1c-0.7-0.1-1.4-0.2-2-0.4c-0.7-0.2-1.3-0.4-1.9-0.6c-0.6-0.2-1.2-0.5-1.8-0.8c-0.6-0.3-1.1-0.6-1.6-1l-11.3,2.6c0.1,0.4,0.2,0.9,0.2,1.3c0,0.4,0,0.9-0.1,1.3c-0.1,0.4-0.3,0.9-0.5,1.3c-0.2,0.4-0.5,0.8-0.9,1.2c-0.3,0.3-0.6,0.5-0.9,0.7c-0.3,0.2-0.7,0.4-1,0.6c-0.4,0.2-0.8,0.4-1.2,0.5c-0.4,0.2-0.8,0.3-1.3,0.4c-0.9,0.2-1.8,0.4-2.8,0.4c-1,0.1-2,0-3-0.1c-1-0.1-2-0.3-3-0.6c-1-0.3-2-0.7-2.9-1.2c-1.4-0.7-2.5-1.6-3.3-2.5c-0.8-0.9-1.4-1.9-1.7-2.9c-0.3-1-0.3-1.9,0-2.9C2.2,9.8,2.8,9,3.6,8.2c0.3-0.2,0.6-0.5,1-0.7C4.9,7.4,5.3,7.2,5.7,7C6,6.8,6.4,6.7,6.8,6.6c0.4-0.1,0.8-0.2,1.3-0.3C8.9,6.1,9.8,6,10.8,5.9c0.9,0,1.9,0,2.8,0.2c0.9,0.1,1.9,0.3,2.8,0.6c0.9,0.3,1.8,0.6,2.7,1.1c0.3,0.1,0.6,0.3,0.8,0.4c0.3,0.2,0.5,0.3,0.8,0.5c0.2,0.2,0.5,0.3,0.7,0.5c0.2,0.2,0.4,0.3,0.6,0.5l10.7-2.4c-0.1-0.2-0.2-0.4-0.3-0.6c-0.1-0.2-0.1-0.4-0.2-0.6c-0.1-0.2-0.1-0.4-0.1-0.6c0-0.2,0-0.4,0-0.6c0-0.6,0.1-1.2,0.4-1.7c0.2-0.5,0.6-1,1-1.4c0.4-0.4,1-0.7,1.6-1C35.6,0.6,36.3,0.4,37,0.3z"></path><path d="M66.6,14.3c1.1-0.3,2.4-0.4,3.6-0.3c1.3,0.1,2.6,0.3,3.9,0.7c1.3,0.4,2.6,1,3.7,1.6c1.2,0.7,2.2,1.5,3.1,2.4c0.9,0.9,1.6,1.9,2,2.8c0.4,1,0.6,1.9,0.4,2.7c-0.1,0.9-0.5,1.7-1.1,2.3c-0.6,0.7-1.5,1.2-2.7,1.6c-1,0.3-2.1,0.5-3.2,0.5c-1.1,0-2.3-0.1-3.5-0.4c-1.2-0.3-2.4-0.7-3.5-1.2c-1.1-0.5-2.2-1.2-3.1-1.9l-11,3.3c0.5,0.9,0.7,1.8,0.8,2.7c0,0.9-0.1,1.7-0.5,2.5c-0.4,0.8-0.9,1.5-1.7,2.1c-0.8,0.6-1.7,1.1-2.9,1.5c-1.2,0.4-2.4,0.6-3.7,0.6c-1.3,0-2.6-0.1-3.9-0.4c-1.3-0.3-2.6-0.7-3.8-1.3c-1.2-0.6-2.3-1.3-3.2-2.1l-11.2,3.3c0.4,1,0.5,2.1,0.4,3c-0.1,1-0.4,2-0.9,2.9c-0.5,0.9-1.3,1.7-2.2,2.5c-1,0.7-2.1,1.3-3.5,1.7c-1.6,0.5-3.3,0.7-5,0.7c-1.7,0-3.5-0.3-5.1-0.8c-1.6-0.5-3.1-1.3-4.5-2.2c-1.3-0.9-2.4-2-3.2-3.3c-0.8-1.3-1.2-2.5-1.2-3.8c-0.1-1.2,0.2-2.4,0.8-3.5c0.6-1.1,1.4-2,2.5-2.8c1.1-0.8,2.4-1.4,4-1.8c1.3-0.3,2.7-0.5,4-0.5c1.4,0,2.7,0.2,4,0.5c1.3,0.3,2.6,0.7,3.8,1.3c1.2,0.6,2.3,1.3,3.2,2.1l11.2-3.2c-0.4-0.9-0.6-1.9-0.5-2.8c0-0.9,0.3-1.7,0.7-2.5c0.4-0.7,1.1-1.4,1.9-2c0.8-0.5,1.8-1,2.9-1.3c1.1-0.3,2.3-0.4,3.5-0.4c1.2,0,2.4,0.2,3.6,0.4c1.2,0.3,2.4,0.7,3.5,1.2c1.1,0.5,2.2,1.2,3.1,1.9l11-3.1c-0.5-0.8-0.7-1.7-0.8-2.5c-0.1-0.8,0-1.5,0.3-2.2c0.3-0.7,0.8-1.2,1.4-1.7C64.8,15,65.6,14.6,66.6,14.3z"></path><path d="M69.8,38.1c0.8-0.3,1.6-0.4,2.5-0.5c0.9-0.1,1.8-0.1,2.8,0c1,0.1,1.9,0.3,2.9,0.6c1,0.3,2,0.7,3,1.2c1.5,0.7,2.8,1.6,3.9,2.6c1.1,1,2,2.1,2.7,3.2c0.7,1.1,1.1,2.3,1.2,3.5c0.1,1.2,0,2.3-0.5,3.3c-0.2,0.3-0.4,0.7-0.6,1c-0.2,0.3-0.5,0.6-0.8,0.8c-0.3,0.3-0.6,0.5-1,0.7c-0.3,0.2-0.7,0.4-1.1,0.6c-0.8,0.3-1.7,0.5-2.6,0.7c-0.9,0.1-1.9,0.1-3,0c-1-0.1-2.1-0.3-3.2-0.6c-1.1-0.3-2.1-0.8-3.2-1.3c-0.3-0.1-0.6-0.3-0.8-0.5c-0.3-0.2-0.5-0.3-0.8-0.5c-0.3-0.2-0.5-0.3-0.7-0.5c-0.2-0.2-0.5-0.4-0.7-0.5L58,56.3c0.1,0.2,0.2,0.5,0.3,0.7c0.1,0.2,0.2,0.5,0.2,0.7c0.1,0.3,0.1,0.5,0.2,0.8c0.1,0.3,0.1,0.5,0.1,0.8c0.1,1,0.1,1.9-0.1,2.7c-0.2,0.9-0.5,1.7-1,2.4c-0.5,0.7-1.1,1.4-1.8,2c-0.7,0.6-1.6,1.1-2.5,1.5c-0.5,0.2-1,0.4-1.5,0.5c-0.5,0.1-1.1,0.2-1.6,0.3c-0.6,0.1-1.1,0.1-1.7,0.1c-0.6,0-1.2,0-1.8-0.1c-1.9-0.2-3.7-0.7-5.3-1.4c-1.7-0.7-3.1-1.7-4.4-2.9c-1.3-1.1-2.3-2.4-3-3.8c-0.7-1.4-1.1-2.8-1.1-4.3c0-1,0.1-1.9,0.4-2.7c0.3-0.8,0.7-1.6,1.3-2.3c0.5-0.7,1.2-1.3,2-1.8c0.8-0.5,1.6-0.9,2.5-1.2c0.5-0.2,0.9-0.3,1.4-0.4c0.5-0.1,1-0.2,1.5-0.2c0.5,0,1.1-0.1,1.6-0.1c0.6,0,1.1,0,1.7,0.1c0.9,0.1,1.7,0.3,2.6,0.5c0.8,0.2,1.6,0.5,2.4,0.9c0.8,0.3,1.5,0.7,2.2,1.2c0.7,0.4,1.4,0.9,2,1.4l11.6-4.2c-0.3-0.6-0.5-1.2-0.7-1.8c-0.2-0.6-0.2-1.2-0.3-1.8c0-0.6,0.1-1.1,0.2-1.7c0.1-0.5,0.4-1.1,0.7-1.5c0.2-0.3,0.4-0.6,0.7-0.9c0.3-0.3,0.5-0.5,0.9-0.7c0.3-0.2,0.6-0.4,1-0.6C69,38.4,69.4,38.2,69.8,38.1z"></path></g><g id="SvgjsG1522" featureKey="text1" fill="#fc3317" transform="matrix(2.0851602173145776,0,0,2.0851602173145776,6.999998384291957,58.48202712058185)"><path d="M2.7 23.02 c0.46666 0 0.94004 -0.30332 1.42 -0.90998 s0.91334 -1.4033 1.3 -2.39 s0.70332 -2.1066 0.94998 -3.36 s0.37 -2.5266 0.37 -3.82 c0 -0.48 -0.06 -0.88666 -0.18 -1.22 s-0.33334 -0.5 -0.64 -0.5 s-0.62 0.14 -0.94 0.42 s-0.63 0.66334 -0.93 1.15 s-0.58334 1.0633 -0.85 1.73 s-0.49666 1.39 -0.69 2.17 s-0.34668 1.5967 -0.46002 2.45 s-0.17 1.7133 -0.17 2.58 c0 0.2 0.01 0.40334 0.03 0.61 s0.06 0.39 0.12 0.55 s0.14334 0.29 0.25 0.39 s0.24666 0.15 0.42 0.15 z M5.84 9.84 c0.92 0 1.6233 0.32334 2.11 0.97 s0.73 1.57 0.73 2.77 c0 1.3467 -0.16334 2.6466 -0.49 3.9 s-0.76332 2.3634 -1.31 3.33 s-1.1767 1.74 -1.89 2.32 s-1.4567 0.87 -2.23 0.87 c-0.89334 0 -1.5767 -0.33666 -2.05 -1.01 s-0.71 -1.5767 -0.71 -2.71 c0 -0.69334 0.06 -1.4333 0.18 -2.22 s0.29666 -1.5667 0.53 -2.34 s0.51668 -1.5133 0.85002 -2.22 s0.71668 -1.3333 1.15 -1.88 s0.91 -0.98 1.43 -1.3 s1.0867 -0.48 1.7 -0.48 z M18.060000000000002 20.06 c-0.26666 0.49334 -0.59336 0.98008 -0.98002 1.4601 c-0.33334 0.41334 -0.75334 0.85 -1.26 1.31 s-1.1067 0.86334 -1.8 1.21 l-0.22 0.84 c-0.06666 0.22666 -0.13 0.45332 -0.19 0.67998 s-0.10334 0.40666 -0.13 0.54 c-0.13334 0.46666 -0.3 0.9 -0.5 1.3 s-0.43 0.74334 -0.69 1.03 s-0.54666 0.51 -0.86 0.67 s-0.65 0.24 -1.01 0.24 s-0.66666 -0.13334 -0.92 -0.4 s-0.38 -0.60666 -0.38 -1.02 c0 -0.45334 0.09334 -0.89334 0.28 -1.32 s0.43666 -0.82666 0.75 -1.2 s0.66668 -0.71668 1.06 -1.03 s0.80334 -0.58334 1.23 -0.81 l0.26 -1 l-0.41 0.5 c-0.14 0.17334 -0.29334 0.33 -0.46 0.47 s-0.35 0.25334 -0.55 0.34 s-0.42 0.13 -0.66 0.13 c-0.36 0 -0.66 -0.08666 -0.9 -0.26 s-0.43334 -0.39 -0.58 -0.65 s-0.25 -0.54 -0.31 -0.84 s-0.09 -0.58334 -0.09 -0.85 c0 -0.73334 0.09334 -1.5133 0.28 -2.34 s0.45 -1.59 0.79 -2.29 s0.75 -1.28 1.23 -1.74 s1.0067 -0.69 1.58 -0.69 c0.50666 0 0.90666 0.11334 1.2 0.34 s0.51334 0.53332 0.66 0.91998 l0.26 -0.92 c0.04 -0.04 0.1 -0.08 0.18 -0.12 c0.06666 -0.02666 0.16332 -0.05332 0.28998 -0.07998 s0.29 -0.04 0.49 -0.04 c0.16 0 0.28666 0.01334 0.38 0.04 s0.16668 0.05332 0.22002 0.07998 c0.05334 0.04 0.1 0.07334 0.14 0.1 l-2.06 7.98 c0.46666 -0.21334 0.87666 -0.47668 1.23 -0.79002 s0.66334 -0.62334 0.93 -0.93 c0.29334 -0.34666 0.56 -0.70666 0.8 -1.08 z M11.16 22.2801 c0.34666 0 0.68336 -0.18996 1.01 -0.56996 s0.61332 -0.84334 0.85998 -1.39 s0.44666 -1.12 0.6 -1.72 s0.23 -1.12 0.23 -1.56 c0 -0.37334 -0.08334 -0.68 -0.25 -0.92 s-0.41666 -0.36 -0.75 -0.36 c-0.32 0 -0.63 0.18666 -0.93 0.56 s-0.56666 0.83 -0.8 1.37 s-0.42 1.1133 -0.56 1.72 s-0.21 1.1433 -0.21 1.61 c0 0.42666 0.07666 0.74332 0.23 0.94998 s0.34334 0.31 0.57 0.31 z M10.52 28.4602 c0.12 0 0.23998 -0.05334 0.35998 -0.16 s0.23334 -0.25 0.34 -0.43 s0.20666 -0.38 0.3 -0.6 s0.18 -0.45 0.26 -0.69 c0.18666 -0.54666 0.35332 -1.18 0.49998 -1.9 c-0.28 0.22666 -0.55334 0.47 -0.82 0.73 s-0.50332 0.52334 -0.70998 0.79 s-0.37332 0.53666 -0.49998 0.81 s-0.19 0.53 -0.19 0.77 c0 0.45334 0.15334 0.68 0.46 0.68 z M24.68 20.06 c-0.4 0.74666 -0.8333 1.4067 -1.3 1.98 c-0.2 0.24 -0.42 0.48 -0.66 0.72 s-0.49666 0.45 -0.77 0.63 s-0.56 0.32666 -0.86 0.44 s-0.61 0.17 -0.93 0.17 c-0.92 0 -1.6433 -0.27 -2.17 -0.81 s-0.79 -1.3567 -0.79 -2.45 c0 -0.73334 0.1 -1.4767 0.3 -2.23 s0.49 -1.4367 0.87 -2.05 s0.83334 -1.1167 1.36 -1.51 s1.1233 -0.59 1.79 -0.59 c0.34666 0 0.64 0.05666 0.88 0.17 s0.43334 0.26 0.58 0.44 s0.25332 0.38666 0.31998 0.62 s0.1 0.47 0.1 0.71 c0 0.57334 -0.18 1.1 -0.54 1.58 s-0.78666 0.89666 -1.28 1.25 s-0.99334 0.62668 -1.5 0.82002 s-0.90666 0.29 -1.2 0.29 c-0.01334 0.06666 -0.02 0.13666 -0.02 0.21 l0 0.23 c0 0.76 0.14334 1.3067 0.43 1.64 s0.65 0.5 1.09 0.5 c0.48 0 0.93334 -0.15334 1.36 -0.46 s0.80666 -0.64666 1.14 -1.02 c0.38666 -0.44 0.74666 -0.94 1.08 -1.5 z M21.32 15.46 c-0.28 0 -0.55 0.11996 -0.81 0.35996 s-0.49334 0.55334 -0.7 0.94 s-0.38666 0.82666 -0.54 1.32 s-0.26334 0.99334 -0.33 1.5 c0.21334 0 0.49 -0.11 0.83 -0.33 s0.67334 -0.49334 1 -0.82 s0.60666 -0.68332 0.84 -1.07 s0.35 -0.74 0.35 -1.06 c0 -0.26666 -0.05334 -0.47332 -0.16 -0.61998 s-0.26666 -0.22 -0.48 -0.22 z M20.84 13.64 c-0.06666 -0.06666 -0.11338 -0.13332 -0.14004 -0.19998 s-0.05332 -0.12666 -0.07998 -0.18 s-0.04 -0.11334 -0.04 -0.18 l1.68 -1.58 c0.01334 0 0.04668 0.0066602 0.10002 0.02 l0.12 0.06 c0.05334 0.02666 0.11334 0.07332 0.18 0.13998 c0.08 0.08 0.14666 0.17334 0.2 0.28 c0.02666 0.05334 0.04 0.1 0.04 0.14 z M32.04 19.84 c-0.25334 0.62666 -0.57328 1.18 -0.95994 1.66 c-0.33334 0.42666 -0.75668 0.81 -1.27 1.15 s-1.13 0.51 -1.85 0.51 c-0.14666 0.16 -0.31332 0.3 -0.49998 0.42 c-0.16 0.10666 -0.35334 0.20332 -0.58 0.28998 s-0.48 0.13 -0.76 0.13 c-0.74666 0 -1.3333 -0.26666 -1.76 -0.8 s-0.64 -1.3267 -0.64 -2.38 c0 -0.76 0.07666 -1.4233 0.23 -1.99 s0.33 -1.04 0.53 -1.42 s0.4 -0.66334 0.6 -0.85 s0.35334 -0.28 0.46 -0.28 c0.13334 -0.38666 0.31334 -0.74 0.54 -1.06 c0.18666 -0.26666 0.43332 -0.51 0.73998 -0.73 s0.69332 -0.33 1.16 -0.33 c0.42666 0 0.78666 0.08334 1.08 0.25 s0.53334 0.38666 0.72 0.66 s0.32332 0.58668 0.40998 0.94002 s0.13 0.71668 0.13 1.09 c0 0.76 -0.08666 1.45 -0.26 2.07 s-0.36668 1.1633 -0.58002 1.63 c-0.24 0.53334 -0.51334 1.02 -0.82 1.46 c0.30666 0 0.61666 -0.13666 0.93 -0.41 s0.60334 -0.57668 0.87 -0.91002 c0.30666 -0.38666 0.60666 -0.82666 0.9 -1.32 z M26.48 18.12 c0 0.94666 0.09666 1.7333 0.29 2.36 s0.44334 1.0933 0.75 1.4 c0.24 -0.52 0.46 -1.0667 0.66 -1.64 c0.16 -0.49334 0.31 -1.0533 0.45 -1.68 s0.21 -1.28 0.21 -1.96 c0 -0.62666 -0.07334 -1.0567 -0.22 -1.29 s-0.36666 -0.35 -0.66 -0.35 c-0.2 0 -0.38666 0.08666 -0.56 0.26 s-0.33 0.40668 -0.47 0.70002 s-0.25 0.63 -0.33 1.01 s-0.12 0.77666 -0.12 1.19 z M26.98 22.72 c-0.22666 -0.2 -0.43002 -0.46336 -0.61002 -0.79002 s-0.33334 -0.65 -0.46 -0.97 s-0.22332 -0.61334 -0.28998 -0.88 s-0.1 -0.45332 -0.1 -0.55998 l-0.12 0.68 c-0.02666 0.18666 -0.05 0.38332 -0.07 0.58998 s-0.03 0.37666 -0.03 0.51 c0 0.50666 0.06 0.95 0.18 1.33 s0.33334 0.57 0.64 0.57 c0.12 0 0.23334 -0.02334 0.34 -0.07 s0.2 -0.10332 0.28 -0.16998 c0.09334 -0.06666 0.17334 -0.14666 0.24 -0.24 z M33.44 22.2 c0.22666 0 0.39336 0.07 0.50002 0.21 s0.16 0.30334 0.16 0.49 c0 0.25334 -0.08666 0.5 -0.26 0.74 s-0.41334 0.36 -0.72 0.36 c-0.22666 0 -0.39 -0.07334 -0.49 -0.22 s-0.15 -0.31332 -0.15 -0.49998 c0 -0.25334 0.08334 -0.49668 0.25 -0.73002 s0.40332 -0.35 0.70998 -0.35 z"></path></g><g id="SvgjsG1523" featureKey="text3" fill="#fc3317" transform="matrix(0.3082766109412321,0,0,0.3082766109412321,-0.6412153272381239,117.9788894479723)"><path d="M2.08 23.52 l0 -13.04 c0 -0.26 0.22 -0.48 0.48 -0.48 l0.06 0 l3.9 0 c2.2 0 3.98 1.8 3.98 4 s-1.78 3.98 -3.98 3.98 l-3.46 0.04 l0 5.5 c0 0.26 -0.22 0.48 -0.5 0.48 c-0.26 0 -0.48 -0.22 -0.48 -0.48 z M3.06 17.04 l3.46 0 c1.66 -0.02 3.02 -1.38 3.02 -3.04 s-1.36 -3.02 -3.02 -3.02 l-3.46 0 l0 6.06 z M21.08 23.14 c-0.24 -0.46 -0.38 -1.12 -0.38 -2.3 c0 -1.02 -0.52 -1.66 -1.14 -2.12 c-0.62 -0.44 -1.36 -0.66 -1.62 -0.7 c-0.06 -0.02 -0.08 -0.04 -0.1 -0.04 l-3.4 0 l0 5.54 c0 0.26 -0.22 0.48 -0.5 0.48 c-0.26 0 -0.48 -0.22 -0.48 -0.48 l0 -13.04 c0 -0.24 0.2 -0.46 0.44 -0.48 l0.04 0 l0.06 0 l3.9 0 c2.2 0 3.98 1.78 3.98 4 c0 1.6 -0.94 2.98 -2.3 3.62 c0.06 0.04 0.12 0.06 0.2 0.1 c0.92 0.52 1.88 1.54 1.88 3.12 c0 0.82 0.08 1.32 0.18 1.62 c0.08 0.24 0.18 0.32 0.2 0.34 c0.22 -0.02 0.46 0.1 0.54 0.32 c0.06 0.26 -0.06 0.54 -0.32 0.64 c-0.02 0 -0.12 0.02 -0.24 0.02 l-0.04 0 c-0.26 0 -0.68 -0.2 -0.9 -0.64 z M20.92 14 c0 -1.68 -1.36 -3.02 -3.02 -3.02 l-3.46 0 l0 6.04 l3.36 0 l0.18 0 c1.62 -0.04 2.94 -1.38 2.94 -3.02 z M25.62 16.9 c0.02 -3.92 2.98 -7.1 6.76 -7.1 l0 0 c3.74 0 6.68 3.18 6.7 7.1 l0 0 c-0.02 3.92 -2.96 7.1 -6.7 7.1 l0 0 c-3.78 0 -6.74 -3.18 -6.76 -7.1 l0 0 z M26.6 16.9 c0 3.42 2.6 6.12 5.78 6.12 l0 0 c3.08 0 5.68 -2.7 5.7 -6.12 l0 0 c-0.02 -3.46 -2.62 -6.1 -5.7 -6.1 l0 0 c-3.18 0 -5.78 2.64 -5.78 6.1 l0 0 z M42.62 16.94 c0 -3.98 3.26 -7.12 7.28 -7.14 l0 0 c1.72 0 3.3 0.6 4.52 1.54 l0 0 c0.22 0.18 0.26 0.52 0.08 0.7 l0 0 c-0.16 0.24 -0.48 0.26 -0.68 0.1 l0 0 c-1.08 -0.84 -2.44 -1.36 -3.92 -1.36 l0 0 c-3.5 0 -6.3 2.74 -6.3 6.16 l0 0 c0 3.34 2.8 6.08 6.3 6.08 l0 0 c1.48 0 2.84 -0.48 3.88 -1.36 l0 0 c0.24 -0.16 0.56 -0.12 0.7 0.12 l0 0 c0.2 0.18 0.16 0.54 -0.06 0.7 l0 0 c-1.22 0.94 -2.8 1.52 -4.52 1.52 l0 0 c-4.02 0 -7.28 -3.16 -7.28 -7.06 l0 0 z M58.68 18.34 l0 -7.86 c0 -0.26 0.22 -0.48 0.48 -0.48 l0 0 c0.28 0 0.5 0.22 0.5 0.48 l0 0 l0 7.86 c0 2.58 2.1 4.66 4.66 4.68 l0 0 c2.6 -0.02 4.7 -2.1 4.7 -4.68 l0 0 l0 -7.86 l0 0 c0 -0.26 0.22 -0.48 0.48 -0.48 l0 0 c0.28 0 0.5 0.22 0.5 0.48 l0 0 l0 7.86 c0 3.12 -2.54 5.66 -5.68 5.66 l0 0 c-3.1 0 -5.64 -2.54 -5.64 -5.66 l0 0 z M82.28 23.14 c-0.24 -0.46 -0.38 -1.12 -0.38 -2.3 c0 -1.02 -0.52 -1.66 -1.14 -2.12 c-0.62 -0.44 -1.36 -0.66 -1.62 -0.7 c-0.06 -0.02 -0.08 -0.04 -0.1 -0.04 l-3.4 0 l0 5.54 c0 0.26 -0.22 0.48 -0.5 0.48 c-0.26 0 -0.48 -0.22 -0.48 -0.48 l0 -13.04 c0 -0.24 0.2 -0.46 0.44 -0.48 l0.04 0 l0.06 0 l3.9 0 c2.2 0 3.98 1.78 3.98 4 c0 1.6 -0.94 2.98 -2.3 3.62 c0.06 0.04 0.12 0.06 0.2 0.1 c0.92 0.52 1.88 1.54 1.88 3.12 c0 0.82 0.08 1.32 0.18 1.62 c0.08 0.24 0.18 0.32 0.2 0.34 c0.22 -0.02 0.46 0.1 0.54 0.32 c0.06 0.26 -0.06 0.54 -0.32 0.64 c-0.02 0 -0.12 0.02 -0.24 0.02 l-0.04 0 c-0.26 0 -0.68 -0.2 -0.9 -0.64 z M82.12 14 c0 -1.68 -1.36 -3.02 -3.02 -3.02 l-3.46 0 l0 6.04 l3.36 0 l0.18 0 c1.62 -0.04 2.94 -1.38 2.94 -3.02 z M87.44 23.52 l0 -13.04 c0 -0.26 0.22 -0.48 0.48 -0.48 l0.04 0 l7.16 0 c0.28 0 0.48 0.22 0.48 0.48 c0 0.28 -0.2 0.5 -0.48 0.5 l-6.7 0 l0 5.54 l5.86 0 c0.26 0 0.48 0.22 0.48 0.5 c0 0.26 -0.22 0.48 -0.48 0.48 l-5.86 0 l0 5.52 l6.7 0 c0.28 0 0.48 0.22 0.48 0.5 c0 0.26 -0.2 0.48 -0.48 0.48 l-7.14 0 l-0.06 0 l-0.04 0 c-0.24 -0.02 -0.44 -0.22 -0.44 -0.48 z M110.1 23.52 l0 -11.52 l-4.48 6.22 c-0.1 0.16 -0.26 0.22 -0.4 0.22 l-0.04 0 c-0.18 0 -0.32 -0.06 -0.42 -0.22 l-4.48 -6.2 l0 11.5 c0 0.26 -0.22 0.48 -0.48 0.48 c-0.28 0 -0.5 -0.22 -0.5 -0.48 l0 -12.96 c0 -0.16 0.08 -0.3 0.2 -0.38 c0 -0.02 0.02 -0.02 0.04 -0.04 c0.22 -0.14 0.52 -0.1 0.68 0.12 l4.98 6.9 l4.96 -6.9 c0.14 -0.22 0.46 -0.26 0.68 -0.12 c0.06 0.06 0.1 0.1 0.14 0.16 c0.04 0.08 0.08 0.18 0.08 0.26 l0 12.96 c0 0.26 -0.22 0.48 -0.48 0.48 c-0.28 0 -0.48 -0.22 -0.48 -0.48 z M116.17999999999999 23.52 l0 -13.04 c0 -0.26 0.22 -0.48 0.48 -0.48 l0.04 0 l7.16 0 c0.28 0 0.48 0.22 0.48 0.48 c0 0.28 -0.2 0.5 -0.48 0.5 l-6.7 0 l0 5.54 l5.86 0 c0.26 0 0.48 0.22 0.48 0.5 c0 0.26 -0.22 0.48 -0.48 0.48 l-5.86 0 l0 5.52 l6.7 0 c0.28 0 0.48 0.22 0.48 0.5 c0 0.26 -0.2 0.48 -0.48 0.48 l-7.14 0 l-0.06 0 l-0.04 0 c-0.24 -0.02 -0.44 -0.22 -0.44 -0.48 z M137.45999999999998 23.74 l-8.4 -11.68 l0 11.46 c0 0.26 -0.22 0.48 -0.48 0.48 s-0.48 -0.22 -0.48 -0.48 l0 -12.84 c-0.06 -0.2 0 -0.4 0.18 -0.54 c0.22 -0.14 0.54 -0.1 0.68 0.12 l8.48 11.76 l0 -11.4 c0 -0.26 0.22 -0.48 0.48 -0.48 c0.28 0 0.5 0.22 0.5 0.48 l0 12.9 c0 0.26 -0.22 0.48 -0.5 0.48 c-0.16 0 -0.28 -0.06 -0.38 -0.18 c-0.02 -0.02 -0.06 -0.04 -0.08 -0.08 z M147.07999999999998 23.52 l0 -12.54 l-4.22 0 c-0.26 0 -0.48 -0.22 -0.48 -0.5 c0 -0.26 0.22 -0.48 0.48 -0.48 l9.4 0 c0.26 0 0.48 0.22 0.48 0.48 c0 0.28 -0.22 0.5 -0.48 0.5 l-4.22 0 l0 12.54 c0 0.26 -0.22 0.48 -0.48 0.48 s-0.48 -0.22 -0.48 -0.48 z M155.98 23 c0 -0.56 0.44 -1 1 -1 s1 0.44 1 1 s-0.44 1 -1 1 s-1 -0.44 -1 -1 z  M166.4 16.9 c0.02 -3.92 2.98 -7.1 6.76 -7.1 l0 0 c3.74 0 6.68 3.18 6.7 7.1 l0 0 c-0.02 3.92 -2.96 7.1 -6.7 7.1 l0 0 c-3.78 0 -6.74 -3.18 -6.76 -7.1 l0 0 z M167.38 16.9 c0 3.42 2.6 6.12 5.78 6.12 l0 0 c3.08 0 5.68 -2.7 5.7 -6.12 l0 0 c-0.02 -3.46 -2.62 -6.1 -5.7 -6.1 l0 0 c-3.18 0 -5.78 2.64 -5.78 6.1 l0 0 z M184.02 23.52 l0 -13.04 c0 -0.26 0.22 -0.48 0.48 -0.48 l0.06 0 l3.9 0 c2.2 0 3.98 1.8 3.98 4 s-1.78 3.98 -3.98 3.98 l-3.46 0.04 l0 5.5 c0 0.26 -0.22 0.48 -0.5 0.48 c-0.26 0 -0.48 -0.22 -0.48 -0.48 z M185 17.04 l3.46 0 c1.66 -0.02 3.02 -1.38 3.02 -3.04 s-1.36 -3.02 -3.02 -3.02 l-3.46 0 l0 6.06 z M199.29999999999998 23.52 l0 -12.54 l-4.22 0 c-0.26 0 -0.48 -0.22 -0.48 -0.5 c0 -0.26 0.22 -0.48 0.48 -0.48 l9.4 0 c0.26 0 0.48 0.22 0.48 0.48 c0 0.28 -0.22 0.5 -0.48 0.5 l-4.22 0 l0 12.54 c0 0.26 -0.22 0.48 -0.48 0.48 s-0.48 -0.22 -0.48 -0.48 z M208.78 23.52 l0 -13.04 c0 -0.26 0.22 -0.48 0.48 -0.48 l0 0 c0.28 0 0.5 0.22 0.5 0.48 l0 0 l0 13.04 c0 0.26 -0.22 0.48 -0.5 0.48 l0 0 c-0.26 0 -0.48 -0.22 -0.48 -0.48 l0 0 z M225.54 23.52 l0 -11.52 l-4.48 6.22 c-0.1 0.16 -0.26 0.22 -0.4 0.22 l-0.04 0 c-0.18 0 -0.32 -0.06 -0.42 -0.22 l-4.48 -6.2 l0 11.5 c0 0.26 -0.22 0.48 -0.48 0.48 c-0.28 0 -0.5 -0.22 -0.5 -0.48 l0 -12.96 c0 -0.16 0.08 -0.3 0.2 -0.38 c0 -0.02 0.02 -0.02 0.04 -0.04 c0.22 -0.14 0.52 -0.1 0.68 0.12 l4.98 6.9 l4.96 -6.9 c0.14 -0.22 0.46 -0.26 0.68 -0.12 c0.06 0.06 0.1 0.1 0.14 0.16 c0.04 0.08 0.08 0.18 0.08 0.26 l0 12.96 c0 0.26 -0.22 0.48 -0.48 0.48 c-0.28 0 -0.48 -0.22 -0.48 -0.48 z M231.76 23.52 l0 -13.04 c0 -0.26 0.22 -0.48 0.48 -0.48 l0 0 c0.28 0 0.5 0.22 0.5 0.48 l0 0 l0 13.04 c0 0.26 -0.22 0.48 -0.5 0.48 l0 0 c-0.26 0 -0.48 -0.22 -0.48 -0.48 l0 0 z M237.29999999999998 23.9 c-0.18 -0.12 -0.24 -0.36 -0.16 -0.56 c0.04 -0.08 0.08 -0.14 0.12 -0.18 l8.82 -12.12 l-8.48 0 c-0.26 0 -0.48 -0.22 -0.48 -0.48 s0.22 -0.48 0.48 -0.48 l9.3 0 c0.14 -0.04 0.28 0 0.4 0.08 c0.04 0.02 0.1 0.06 0.14 0.1 c0.14 0.16 0.14 0.42 0 0.6 l-8.9 12.16 l8.52 0 c0.26 0 0.48 0.2 0.48 0.5 c0 0.26 -0.22 0.48 -0.48 0.48 l-9.46 0 l-0.04 0 c-0.04 0 -0.1 -0.02 -0.14 -0.02 c-0.04 -0.02 -0.08 -0.04 -0.12 -0.08 z M251.06 23.52 l0 -13.04 c0 -0.26 0.22 -0.48 0.48 -0.48 l0.04 0 l7.16 0 c0.28 0 0.48 0.22 0.48 0.48 c0 0.28 -0.2 0.5 -0.48 0.5 l-6.7 0 l0 5.54 l5.86 0 c0.26 0 0.48 0.22 0.48 0.5 c0 0.26 -0.22 0.48 -0.48 0.48 l-5.86 0 l0 5.52 l6.7 0 c0.28 0 0.48 0.22 0.48 0.5 c0 0.26 -0.2 0.48 -0.48 0.48 l-7.14 0 l-0.06 0 l-0.04 0 c-0.24 -0.02 -0.44 -0.22 -0.44 -0.48 z M266.02 24 l-2.58 0 l-0.08 0 c-0.24 -0.02 -0.44 -0.22 -0.44 -0.48 l0 -13.04 c0 -0.26 0.22 -0.48 0.48 -0.48 l0.06 0 l2.56 0 c3.86 0 7 3.16 7 7.02 s-3.14 6.98 -7 6.98 z M263.9 23.02 l2.12 0 c3.32 0 6.02 -2.68 6.02 -6 c0 -3.34 -2.7 -6.02 -6.02 -6.04 l-2.12 0 l0 12.04 z M276.85999999999996 23 c0 -0.56 0.44 -1 1 -1 s1 0.44 1 1 s-0.44 1 -1 1 s-1 -0.44 -1 -1 z"></path></g>
			</g>
		</svg>
	